<?xml version="1.0" encoding="UTF-8"?>
<svg id="Isolation_Mode" data-name="Isolation Mode" xmlns="http://www.w3.org/2000/svg" viewBox="0 0 183.15 183.15">
  <defs>
    <style>
      .cls-1 {
        fill: #f97b51;
      }

      .cls-2 {
        fill: #6c7287;
      }
    </style>
  </defs>
  <path class="cls-1" d="M183.15,91.57c0,50.58-41,91.58-91.58,91.58S0,142.15,0,91.57,41,0,91.57,0s91.58,41,91.58,91.57"/>
  <g>
    <path class="cls-2" d="M36.94,152.51c-2.28-1.05-2.88-2.86-2.84-5.29,.45-23.55,18.41-44.49,41.61-48.28,2.89-.47,5.85-.67,8.79-.74,5.21-.11,10.43-.19,15.63,0,19.76,.73,34.23,10.1,43.69,27.29,3.72,6.76,5.35,14.15,5.67,21.86,.1,2.4-.62,4.14-2.83,5.16H36.94Z"/>
    <path class="cls-2" d="M91.74,21.26c19.1-.03,34.66,15.52,34.66,34.62,0,19.04-15.51,34.57-34.55,34.6-19.09,.03-34.67-15.53-34.66-34.62,0-19.04,15.51-34.57,34.55-34.59Z"/>
  </g>
</svg>