<?xml version="1.0" encoding="utf-8"?>
<!-- Generator: Adobe Illustrator 22.1.0, SVG Export Plug-In . SVG Version: 6.00 Build 0)  -->
<svg version="1.1" id="Layer_1" xmlns="http://www.w3.org/2000/svg" xmlns:xlink="http://www.w3.org/1999/xlink" x="0px" y="0px"
	 viewBox="0 0 200 200" style="enable-background:new 0 0 200 200;" xml:space="preserve">
<style type="text/css">
	.st0{fill:#6C7287;}
	.st1{fill:#FFFFFF;}
</style>
<g>
	<g>
		<path class="st0" d="M169.9,117.2c0,37.3-30.3,67.6-67.6,67.6s-67.6-30.3-67.6-67.6S65,49.6,102.3,49.6
			C139.6,49.6,169.9,79.8,169.9,117.2"/>
		<path class="st1" d="M133.9,141.6l-24.3-17.9c8.6-8.6,16.5-19.5,18.6-32.3l-11.4-1.9c-1.8,10.5-8.8,19.8-16.4,27.1l-6.6-40
			l-11.4,1.9l7.8,46.7c-3.3,2.4-6.4,4.4-8.6,5.8c-7.2,4.4-10.1,13.4-6.7,20.9c2.1,4.7,8.3,9.5,14.2,9.5c0.3,0,0.5,0,0.8,0
			c6.9-0.5,10.5-3.8,12.3-6.5c4.4-6.4,2.5-14.8,1.9-16.9l-1.1-6.6l25.1,18.5L133.9,141.6z M92.3,148.3c-0.2,0.3-0.9,1.3-3.6,1.5
			c-0.9,0-3.1-1.7-3.6-2.7c-1-2.2,0-4.9,2.2-6.3c1.4-0.8,3-1.8,4.7-3l0.4,2.6l0.1,0.3C93.2,142.8,93.5,146.6,92.3,148.3"/>
	</g>
	<g>
		<path class="st0" d="M8.5,113.4c-1.7-0.1-3-1.6-2.9-3.4s1.6-3,3.4-2.9c1.7,0.1,3,1.6,2.9,3.4C11.7,112.2,10.2,113.5,8.5,113.4z"/>
		<path class="st0" d="M7.5,97c-5.9-1.9-8.8-7.7-6.9-13.7c0.9-2.9,2.7-5.3,5.2-6.4l0.9,1.8c-2.2,1.1-3.5,2.9-4.2,5.2
			C1,88.7,3.4,93.5,8.1,95c4.8,1.5,9.5-1,11-5.9c0.7-2.3,0.6-4.5-0.5-6.7l1.8-0.9c1.4,2.4,1.6,5.3,0.6,8.3
			C19.1,95.8,13.3,98.9,7.5,97z"/>
		<path class="st0" d="M20,71.4c-3.9-2.6-4.7-7.3-2.1-11.2c2.6-3.8,7.3-4.8,11.1-2.2c3.9,2.6,4.8,7.3,2.2,11.2
			C28.6,73,23.8,74,20,71.4z M27.8,59.8c-3.1-2.1-6.5-1.4-8.4,1.4c-1.9,2.8-1.3,6.3,1.8,8.3c3.1,2.1,6.5,1.4,8.4-1.4
			C31.5,65.4,30.8,61.9,27.8,59.8z"/>
		<path class="st0" d="M46.9,39.5l5.9,7l-1.6,1.4L45.5,41c-2.1-2.6-4.6-2.8-6.9-0.8c-2.6,2.2-2.9,5.2-0.6,7.9l5.3,6.4l-1.6,1.4
			L31.5,43.7l1.6-1.3l1.9,2.2c-0.4-2.2,0.6-4.4,2.7-6.2C40.6,36,44,36,46.9,39.5z"/>
		<path class="st0" d="M59.1,40.5l0.2-1.9c1.6,0.4,3.8,0.2,5.8-0.8c2.7-1.3,3.4-2.7,2.7-4.1c-1.7-3.7-9.7,3.6-12.3-2.1
			c-1.1-2.3,0.1-5,3.7-6.7c1.9-0.9,4.1-1.3,5.7-1l-0.1,1.9c-1.7-0.3-3.3,0.1-4.8,0.8c-2.6,1.2-3.3,2.8-2.6,4.1
			c1.8,3.9,9.7-3.4,12.3,2.1c1.2,2.5-0.3,5.1-4,6.8C63.4,40.6,60.8,40.9,59.1,40.5z"/>
		<path class="st0" d="M92.1,24.2l-13,2.5c0.9,3.2,3.8,4.9,7.1,4.2c1.9-0.4,3.4-1.4,4.4-3L92,29c-1,2.1-3,3.4-5.4,3.8
			c-4.8,0.9-8.8-1.7-9.7-6.3C76,21.9,78.6,18,83,17.2s8.1,1.8,9,6.4C92,23.8,92,24,92.1,24.2z M78.8,25.2l11-2.1
			c-0.9-3-3.5-4.7-6.5-4.1C80.3,19.5,78.5,22.1,78.8,25.2z"/>
		<path class="st0" d="M117.8,23.1l-0.8,9.1l-2.1-0.2l0.8-8.9c0.3-3.3-1.3-5.2-4.3-5.4c-3.4-0.3-5.7,1.6-6,5.2l-0.7,8.3l-2.1-0.2
			l1.3-15.8l2,0.2l-0.2,2.9c1.3-1.8,3.5-2.7,6.2-2.5C115.7,16.1,118.2,18.5,117.8,23.1z"/>
		<path class="st0" d="M135.5,36.7c-1,0.4-2.4,0.4-3.5,0c-2.8-1-3.8-3.1-2.9-5.9l3.1-9l-2.7-0.9l0.6-1.7l2.7,0.9l1.1-3.3l2,0.7
			l-1.1,3.3l4.5,1.6l-0.6,1.7l-4.5-1.6l-3.1,8.9c-0.6,1.8,0,3,1.6,3.6c0.8,0.3,1.7,0.3,2.5,0L135.5,36.7z"/>
		<path class="st0" d="M150.9,27.8l1.9,1l-7.7,13.8l-1.9-1L150.9,27.8z M152.9,23.2c0.4-0.7,1.3-1,2.1-0.5c0.8,0.4,1,1.3,0.6,2
			c-0.4,0.8-1.3,1-2.1,0.6C152.8,24.9,152.5,23.9,152.9,23.2z"/>
		<path class="st0" d="M179.9,41.4L165,58l-1.5-1.4l2.1-2.3c-2.4,0.7-4.8,0.1-6.7-1.6c-3.4-3-3.7-7.7-0.5-11.3s7.9-3.7,11.2-0.7
			c1.9,1.7,2.8,3.9,2.4,6.3l6.3-7.1L179.9,41.4z M168.7,50.7c2.5-2.8,2.2-6.3-0.2-8.5c-2.5-2.2-6-2.1-8.5,0.7s-2.2,6.3,0.3,8.5
			C162.7,53.6,166.3,53.5,168.7,50.7z"/>
		<path class="st0" d="M177.6,60.7c4-2.5,8.6-1.4,11.1,2.6c2.5,3.9,1.4,8.6-2.5,11.1s-8.6,1.4-11.1-2.5
			C172.6,67.8,173.6,63.1,177.6,60.7z M185,72.5c3.1-2,3.9-5.4,2.1-8.2c-1.8-2.8-5.2-3.7-8.3-1.7c-3.1,2-3.9,5.4-2.1,8.3
			C178.5,73.8,181.9,74.4,185,72.5z"/>
		<path class="st0" d="M183.9,84.3l1.9,0.4c-0.6,1.5-0.7,3.8,0,5.9c0.9,2.9,2.3,3.7,3.7,3.3c3.9-1.2-2.3-10,3.7-11.9
			c2.5-0.8,5,0.8,6.2,4.6c0.6,1.9,0.7,4.2,0.3,5.8l-1.9-0.4c0.5-1.6,0.4-3.3-0.1-4.8c-0.9-2.7-2.3-3.6-3.7-3.1
			c-4.1,1.3,2.1,10.1-3.7,11.9c-2.6,0.8-5-0.9-6.3-4.8C183.2,88.5,183.2,85.9,183.9,84.3z"/>
		<path class="st0" d="M195.1,103.3c1.7-0.2,3.3,1,3.5,2.8c0.2,1.7-1,3.3-2.8,3.5c-1.7,0.2-3.3-1-3.5-2.8
			C192.1,105.1,193.3,103.5,195.1,103.3z"/>
	</g>
</g>
</svg>
