<?xml version="1.0" encoding="utf-8"?>
<!-- Generator: Adobe Illustrator 22.1.0, SVG Export Plug-In . SVG Version: 6.00 Build 0)  -->
<svg version="1.1" id="Layer_1" xmlns="http://www.w3.org/2000/svg" xmlns:xlink="http://www.w3.org/1999/xlink" x="0px" y="0px"
	 viewBox="0 0 2050 700" style="enable-background:new 0 0 2050 700;" xml:space="preserve">
<style type="text/css">
	.st0{clip-path:url(#SVGID_2_);}
	.st1{clip-path:url(#SVGID_4_);}
	.st2{fill:#53596E;}
	.st3{clip-path:url(#SVGID_8_);}
	.st4{clip-path:url(#SVGID_10_);}
	.st5{clip-path:url(#SVGID_14_);}
	.st6{clip-path:url(#SVGID_16_);}
	.st7{clip-path:url(#SVGID_20_);}
	.st8{clip-path:url(#SVGID_22_);}
	.st9{fill:#6C7287;}
	.st10{fill:#FFFFFF;}
</style>
<g>
	<defs>
		<path id="SVGID_19_" d="M1,48.8v475.8c0,69.8,56.7,126.5,126.7,126.5h1794.6c70,0,126.7-56.6,126.7-126.5V48.8L1,48.8z"/>
	</defs>
	<clipPath id="SVGID_2_">
		<use xlink:href="#SVGID_19_"  style="overflow:visible;"/>
	</clipPath>
	<g class="st0">
		<defs>
			<rect id="SVGID_21_" x="-32.4" y="-240.8" width="2104.8" height="1175.4"/>
		</defs>
		<clipPath id="SVGID_4_">
			<use xlink:href="#SVGID_21_"  style="overflow:visible;"/>
		</clipPath>
		<g class="st1">
			<rect x="-64.5" y="46.2" class="st9" width="2160" height="648.6"/>
			<g>
				<path class="st10" d="M793.7,322.8c-23.4,0-45.2,8.9-61.5,25.1C716,364,707,385.6,707,408.6c0,48.7,38.1,86.9,86.7,86.9
					c22.9,0,44.8-9.1,60.7-25.1h25.2v-61.8C879.5,361.3,841,322.8,793.7,322.8 M793.7,467.3c-32.2,0-58.4-26.3-58.4-58.7
					c0-31.9,26.2-57.9,58.4-57.9c31.9,0,57.9,26,57.9,57.9C851.6,441.6,826.2,467.3,793.7,467.3"/>
				<path class="st10" d="M985.9,253.6c-26.4,0-50.6,11.6-66.8,31.9H900v179H928v-60.4c15.7,14.2,36.4,22.2,57.9,22.2
					c23.4,0,45.2-8.9,61.5-25.1c16.2-16.1,25.2-37.7,25.2-60.8C1072.5,291.8,1034.5,253.6,985.9,253.6 M985.9,398.4
					c-31.9,0-57.9-26-57.9-57.9c0-32.4,26-58.7,57.9-58.7c32.8,0,58.4,25.8,58.4,58.7C1044.3,372.5,1018.1,398.4,985.9,398.4"/>
				<path class="st10" d="M1156.6,323.7c-47.5,0-86.1,38.6-86.1,86.1c0,47.8,38.6,86.7,86.1,86.7c47.8,0,86.7-38.9,86.7-86.7
					C1243.2,362.3,1204.4,323.7,1156.6,323.7 M1156.6,468.5c-31.5,0-58.2-26.9-58.2-58.7c0-32.1,26.1-58.2,58.2-58.2
					c32.4,0,58.7,26.1,58.7,58.2C1215.3,441.6,1188.4,468.5,1156.6,468.5"/>
				<rect x="1260.9" y="256.4" class="st10" width="28" height="205.5"/>
				<rect x="1107.4" y="281.7" class="st10" width="99.5" height="28"/>
				<path class="st10" d="M1394.2,253.8c-47.5,0-86.1,38.6-86.1,86.1c0,47.8,38.6,86.7,86.1,86.7c47.8,0,86.7-38.9,86.7-86.7
					C1480.9,292.4,1442,253.8,1394.2,253.8 M1394.2,398.6c-31.5,0-58.2-26.9-58.2-58.7c0-32.1,26.1-58.2,58.2-58.2
					c32.4,0,58.7,26.1,58.7,58.2C1453,371.7,1426.1,398.6,1394.2,398.6"/>
				<polygon class="st10" points="1364.5,211.9 1350.7,216.4 1352.8,223 1365.6,218.9 1366.7,222.3 1353.9,226.3 1357.2,236.5 
					1353.8,237.6 1346.2,214.1 1363.5,208.6 				"/>
				<path class="st10" d="M1393.3,211.6l3.5-0.2l1.1,18.2l-3.5,0.2l-0.2-2.8l-0.1,0c-1.2,2-3.3,3.5-6.3,3.7
					c-5.3,0.4-9.5-3.4-9.8-9.1c-0.3-5.7,3.3-9.9,8.7-10.1c2.9-0.1,5.2,1,6.7,2.8l0.1,0L1393.3,211.6z M1393.8,220.6
					c-0.2-3.5-2.8-6.1-6.5-5.9c-3.8,0.2-6.1,3.2-5.9,6.6c0.2,3.5,2.8,6.1,6.6,5.9C1391.7,227,1394,224.1,1393.8,220.6"/>
				<path class="st10" d="M1438.3,225.7l-2.7,10.9l-3.4-0.8l2.6-10.5c0.7-2.7-0.4-4.8-2.8-5.4c-2-0.5-4.8,0.5-5.8,4.4l-2.3,9.4
					l-3.4-0.8l2.6-10.5c0.7-2.7-0.4-4.8-2.9-5.4c-2.7-0.6-5,1.4-5.8,4.7l-2.3,9.1l-3.4-0.8l4.4-17.7l3.3,0.8l-0.6,2.5l0.1,0
					c1.5-1.5,3.6-2.3,6-1.7c2.6,0.7,4.2,2.5,4.8,4.8l0.1,0c1.7-1.8,4.1-2.6,6.8-2C1437.7,217.8,1439.4,221.4,1438.3,225.7"/>
				<path class="st10" d="M1456.9,227.3l-8.5,16.1l-3.1-1.6l8.5-16.1L1456.9,227.3z M1460.7,219.9l-2.5,4.7l-3.1-1.6l2.5-4.7
					L1460.7,219.9z"/>
				<path class="st10" d="M1474,228.1l2.8,2.1l-12.7,17.1c-0.7,0.9-0.5,1.8,0.4,2.5l2.4,1.7l-2,2.7l-2.8-2.1
					c-2.5-1.9-2.9-4.3-1.1-6.7L1474,228.1z"/>
				<path class="st10" d="M1494.3,257.9l2.4,2.6l-21,8.3c-3.1,1.2-5.3,0.9-7.4-1.4l-2.9-3.2l2.6-2.4l2.9,3.2
					c1.1,1.2,1.9,1.3,3.5,0.7l0.1,0l9.1-19.6l2.6,2.8l-7.1,15L1494.3,257.9z"/>
				<path class="st10" d="M1512.9,313.9c-5.7,0.7-11.2-2.4-13.3-8.5c-2.4-7.2,1.5-13.8,8.1-16c6.6-2.2,13.8,0.7,16.2,7.8
					c2,6-0.4,11.8-5.3,14.7l-1.2-3.6c3-2.1,4.5-6,3.2-9.9c-1.7-5.1-7-7.2-11.8-5.6c-4.8,1.6-7.6,6.5-5.9,11.6
					c1.4,4.2,5.1,6.2,8.7,5.9L1512.9,313.9z"/>
				<path class="st10" d="M1524.2,340.5l0.1,3.5l-18.2,0.8l-0.1-3.5l2.8-0.1l0-0.1c-2-1.3-3.5-3.4-3.6-6.4c-0.3-5.3,3.6-9.4,9.3-9.6
					c5.7-0.2,9.8,3.5,10,8.9c0.1,2.9-1.1,5.2-2.9,6.6l0,0.1L1524.2,340.5z M1515.1,340.9c3.5-0.1,6.2-2.7,6-6.4
					c-0.2-3.8-3.1-6.1-6.5-6c-3.5,0.1-6.2,2.7-6,6.5C1508.7,338.7,1511.6,341,1515.1,340.9"/>
				<path class="st10" d="M1520.4,371.7l-3.5-0.7l0.7-3.4c0.6-3.3-1.1-5.9-4.8-6.6l-8.6-1.7l0.7-3.4l17.9,3.4l-0.6,3.3l-3.1-0.6
					l0,0.1c1.8,1.3,2.5,3.4,2,6L1520.4,371.7z"/>
				<path class="st10" d="M1500.3,395.9l6-13.8c-2.7-0.9-5.7,0.4-7,3.4c-0.9,2.2-0.7,4.4,0.6,5.8l-1.4,3.3
					c-3.1-2.6-3.8-6.7-2.1-10.6c2.3-5.4,7.8-7,12.6-4.9c4.9,2.1,7.3,7.3,5.1,12.5C1511.6,397.2,1505.7,398.7,1500.3,395.9
					 M1509.1,383.4l-4.4,10.3c2.6,0.5,5.1-0.7,6.3-3.4C1512.1,387.6,1511.2,384.9,1509.1,383.4"/>
				<path class="st10" d="M696.7,407.8l-68.7-50.6c24.3-24.2,46.6-55.2,52.6-91.2l-32.3-5.4c-5,29.7-24.8,55.9-46.4,76.5
					l-18.8-113.1l-32.3,5.4l21.9,132c-9.4,6.9-17.9,12.4-24.4,16.3c-20.3,12.4-28.5,37.7-19,59c5.2,11.7,21.7,26.9,39.9,26.9
					c0.8,0,1.7,0,2.5-0.1c19.4-1.5,29.6-10.9,34.7-18.4c12.3-18.1,7.1-41.7,5.4-47.8l-3.1-18.7l71,52.2L696.7,407.8z M579.3,426.8
					c-0.6,0.9-2.5,3.6-10.1,4.2c-2.6-0.1-8.7-4.7-10.1-7.5c-2.7-6.1,0-13.9,6.2-17.7c3.8-2.3,8.3-5.2,13.3-8.5l1.3,7.4l0.3,0.9
					C581.8,411.3,582.7,421.9,579.3,426.8"/>
			</g>
		</g>
	</g>
</g>
</svg>
